<svg width="24" height="24" viewBox="0 0 24 24" xmlns="http://www.w3.org/2000/svg">
    <path d="M22 9H21V3C21 1.9 20.1 1 19 1H5C3.9 1 3 1.9 3 3V9H2C0.9 9 0 9.9 0 11V17C0 18.1 0.9 19 2 19H3V21C3 22.1 3.9 23 5 23H19C20.1 23 21 22.1 21 21V19H22C23.1 19 24 18.1 24 17V11C24 9.9 23.1 9 22 9ZM4 3C4 2.4 4.4 2 5 2H19C19.6 2 20 2.4 20 3V9H4V3ZM15.8 12.6C15.8 12.7 15.9 12.7 16 12.8C16.1 12.9 16.2 12.9 16.3 13C16.4 13 16.5 13.1 16.7 13.1C17 13.2 17.2 13.3 17.4 13.4C17.6 13.5 17.8 13.6 17.9 13.8C18 13.9 18.2 14.1 18.2 14.2C18.3 14.4 18.3 14.6 18.3 14.8C18.3 15 18.3 15.2 18.2 15.4C18.1 15.6 18 15.7 17.8 15.8C17.6 15.9 17.4 16 17.2 16.1C17 16.2 16.7 16.2 16.4 16.2C16.1 16.2 15.9 16.2 15.6 16.1C15.4 16 15.1 15.9 14.9 15.8C14.7 15.7 14.5 15.5 14.4 15.3C14.3 15.1 14.2 14.8 14.2 14.5H15.4C15.4 14.6 15.4 14.8 15.5 14.9C15.5 15 15.6 15.1 15.7 15.1C15.8 15.2 15.9 15.2 16 15.2C16.1 15.2 16.2 15.2 16.4 15.2C16.6 15.2 16.7 15.2 16.8 15.1C16.9 15.1 17 15 17 14.9C17 14.8 17.1 14.7 17.1 14.7C17.1 14.6 17.1 14.6 17.1 14.5C17.1 14.4 17 14.4 17 14.3C16.9 14.2 16.8 14.2 16.7 14.1C16.6 14 16.4 14 16.2 13.9C16 13.8 15.8 13.7 15.6 13.7C15.4 13.6 15.2 13.5 15.1 13.4C14.9 13.3 14.8 13.1 14.7 13C14.6 12.8 14.6 12.6 14.6 12.4C14.6 12.2 14.6 12 14.7 11.8C14.8 11.6 14.9 11.5 15.1 11.4C15.3 11.3 15.5 11.2 15.7 11.1C15.9 11 16.2 11 16.5 11C16.9 11 17.2 11.1 17.5 11.2C17.8 11.3 18 11.5 18.2 11.7C18.4 11.9 18.4 12.2 18.4 12.5H17.2C17.2 12.4 17.2 12.3 17.1 12.2C17 12.1 17 12 16.9 12C16.8 11.9 16.7 11.9 16.5 11.9C16.3 11.9 16.2 11.9 16.1 12C16 12 15.9 12.1 15.9 12.2C15.8 12.3 15.8 12.4 15.8 12.4C15.8 12.4 15.8 12.5 15.8 12.6ZM13.9 15.1V16H11.8H11.4H10.6V11H11.8V15.1H13.9ZM5.7 11H7.1L7.9 12.7L8.7 11H10.1L8.7 13.5L10.1 16H8.7L7.9 14.3L7 16H5.7L7.1 13.5L5.7 11ZM20 21C20 21.6 19.6 22 19 22H5C4.4 22 4 21.6 4 21V19H20V21Z"/>
</svg>
