<svg width="40" height="40" viewBox="0 0 40 40" fill="none" xmlns="http://www.w3.org/2000/svg">
    <path d="M20.0005 0.000244141C8.97215 0.000244141 0.000488281 8.97191 0.000488281 20.0002C0.000488281 31.0286 8.97215 40.0002 20.0005 40.0002C31.0288 40.0002 40.0005 31.0286 40.0005 20.0002C40.0005 8.97191 31.0288 0.000244141 20.0005 0.000244141ZM24.4305 30.4736C23.3288 30.9069 19.5105 32.7302 17.3105 30.7919C16.6538 30.2152 16.3272 29.4836 16.3272 28.5952C16.3272 26.9319 16.8738 25.4819 17.8588 22.0002C18.0322 21.3419 18.2438 20.4886 18.2438 19.8119C18.2438 18.6436 17.8005 18.3336 16.5988 18.3336C16.0122 18.3336 15.3622 18.5419 14.7738 18.7619L15.0988 17.4302C16.4105 16.8969 18.0572 16.2469 19.4672 16.2469C21.5822 16.2469 23.1388 17.3019 23.1388 19.3086C23.1388 19.8869 23.0388 20.9002 22.8288 21.6002L21.6122 25.9036C21.3605 26.7736 20.9055 28.6919 21.6105 29.2602C22.3038 29.8219 23.9455 29.5236 24.7555 29.1419L24.4305 30.4736ZM22.4205 13.3336C21.0405 13.3336 19.9205 12.2136 19.9205 10.8336C19.9205 9.45358 21.0405 8.33358 22.4205 8.33358C23.8005 8.33358 24.9205 9.45358 24.9205 10.8336C24.9205 12.2136 23.8005 13.3336 22.4205 13.3336Z"
          fill="#D7DAE4"/>
</svg>
