<svg width="48" height="48" viewBox="0 0 48 48" fill="none" xmlns="http://www.w3.org/2000/svg">
    <rect x="0.5" y="0.5" width="47" height="47" rx="7.5" fill="white" stroke="#4D475C"/>
    <path d="M22.342 11C22.3494 12.6129 22.9934 14.1576 24.1339 15.2981C25.2744 16.4386 26.8191 17.0826 28.432 17.09H30.924V19.47C30.924 21.0827 31.5637 22.6296 32.7028 23.7713C33.8418 24.913 35.3873 25.5563 37 25.56V12.176C36.9964 11.8652 36.8713 11.5682 36.6515 11.3485C36.4318 11.1287 36.1348 11.0036 35.824 11H22.342ZM15.678 17.72C15.6854 19.3292 16.3279 20.8704 17.4658 22.0082C18.6036 23.1461 20.1448 23.7886 21.754 23.796H24.274V26.204C24.2814 27.8132 24.9239 29.3544 26.0618 30.4922C27.1996 31.6301 28.7408 32.2726 30.35 32.28V18.882C30.3464 18.5749 30.2228 18.2815 30.0056 18.0644C29.7885 17.8472 29.4951 17.7236 29.188 17.72H15.678ZM9 24.44C9 25.2391 9.15762 26.0303 9.46384 26.7684C9.77007 27.5065 10.2189 28.1769 10.7846 28.7413C11.3503 29.3057 12.0217 29.753 12.7605 30.0575C13.4993 30.362 14.2909 30.5178 15.09 30.516H17.582V32.924C17.5894 34.5332 18.2319 36.0744 19.3698 37.2122C20.5076 38.3501 22.0488 38.9926 23.658 39V25.602C23.6544 25.2912 23.5293 24.9942 23.3095 24.7745C23.0898 24.5547 22.7928 24.4296 22.482 24.426H9V24.44Z"
          fill="#4D475C"/>
</svg>
