<svg width="72" height="64" viewBox="0 0 82 64" fill="none" xmlns="http://www.w3.org/2000/svg">
    <path d="M82 6.54905L80.2822 47.4693C80.2822 49.6373 78.8809 51.5794 76.8015 52.2117L48.7751 61.5611L42.1753 63.8193C41.7685 63.9548 41.3616 64 40.9548 64C40.548 64 40.1411 63.9548 39.7343 63.8193L29.2922 60.2964L5.19846 52.2569C4.6108 52.0762 4.11356 51.8052 3.66152 51.4439C2.89305 50.9019 2.3054 50.0889 2.03418 49.1856C1.85336 48.6436 1.71775 48.1016 1.71775 47.4693L0 6.54905C0 3.88426 2.07938 1.7163 4.70121 1.58081C4.88203 1.58081 23.5513 0 41 0C58.5843 0 77.118 1.53564 77.2988 1.58081C79.9206 1.67114 82 3.88426 82 6.54905Z" fill="#FFD424"/>
    <path d="M40.9546 59.3479C40.4122 59.3479 39.8697 59.2576 39.3725 59.0769L30.6933 56.1412L9.44744 49.0501C7.50367 48.4178 6.14755 46.566 6.05714 44.5335L4.65582 11.1108C4.52021 8.40086 6.55438 6.09741 9.26662 5.91674C15.8664 5.46508 28.7495 4.69727 40.9998 4.69727C53.2953 4.69727 66.1784 5.46508 72.733 5.91674C75.4452 6.09741 77.4342 8.40086 77.3438 11.1108L75.9425 44.4884C75.8521 46.566 74.4959 48.3726 72.5522 49.005L47.4188 57.4058L42.5819 59.0318C42.0395 59.2576 41.4971 59.3479 40.9546 59.3479ZM40.9998 6.5039C28.8399 6.5039 15.9568 7.27172 9.40223 7.72338C7.68448 7.85887 6.41877 9.30418 6.50918 11.0205L7.9105 44.398C7.95571 45.7078 8.81458 46.837 10.0351 47.2435L31.281 54.3345L39.9601 57.2703C40.593 57.4961 41.3162 57.4961 41.9491 57.2703L46.7859 55.6443L71.9193 47.2435C73.1398 46.837 73.9987 45.6627 74.0439 44.398L75.4452 11.0205C75.5356 9.30418 74.2247 7.85887 72.5522 7.72338C66.0428 7.27172 53.2501 6.5039 40.9998 6.5039Z" fill="#201933"/>
    <path d="M20.4766 40.1969V18.4722C20.4766 17.9753 20.8834 17.5237 21.4258 17.5237H24.4997C24.997 17.5237 25.449 17.9302 25.449 18.4722V40.1969C25.449 40.6938 25.0422 41.1454 24.4997 41.1454H21.3806C20.8834 41.1454 20.4766 40.6938 20.4766 40.1969ZM45.7456 40.1969V29.4023C45.7456 29.1313 45.3839 29.041 45.2483 29.2668L40.4115 38.3C40.3211 38.4806 40.1403 38.571 39.9595 38.571H38.9198C38.739 38.571 38.5581 38.4806 38.4677 38.3L33.5857 29.2668C33.4501 29.041 33.0885 29.1313 33.0885 29.4023V40.1969C33.0885 40.6938 32.6816 41.1454 32.1844 41.1454H29.2009C28.7037 41.1454 28.2969 40.7389 28.2969 40.1969V18.427C28.2969 17.9302 28.7037 17.4785 29.2009 17.4785H32.546C32.9077 17.4785 33.2241 17.6592 33.3597 17.9753L39.417 29.7185C39.5074 29.8991 39.8239 29.8991 39.9143 29.7185L45.5648 18.0657C45.7004 17.7495 46.062 17.5237 46.3784 17.5237H49.6783C50.1756 17.5237 50.5824 17.9302 50.5824 18.4722V40.2421C50.5824 40.7389 50.1756 41.1906 49.6783 41.1906H46.6949C46.1524 41.1454 45.7456 40.7389 45.7456 40.1969ZM65.0477 37.6676V40.1969C65.0477 40.7389 64.6408 41.1454 64.0984 41.1454H54.4247C53.9275 41.1454 53.4755 40.7389 53.4755 40.1969V18.4722C53.4755 17.9302 53.8823 17.5237 54.4247 17.5237H57.4534C57.9507 17.5237 58.4027 17.9302 58.4027 18.4722V36.3127C58.4027 36.5385 58.5835 36.7192 58.8095 36.7192H64.0984C64.5956 36.7192 65.0477 37.1257 65.0477 37.6676Z" fill="#201933"/>
</svg>