<?xml version="1.0" encoding="UTF-8"?>
<!DOCTYPE svg PUBLIC "-//W3C//DTD SVG 1.1//EN" "http://www.w3.org/Graphics/SVG/1.1/DTD/svg11.dtd">
<!-- Creator: CorelDRAW -->
<svg xmlns="http://www.w3.org/2000/svg" xml:space="preserve" width="50px" height="62px" version="1.1" style="shape-rendering:geometricPrecision; text-rendering:geometricPrecision; image-rendering:optimizeQuality; fill-rule:evenodd; clip-rule:evenodd"
viewBox="0 0 50 62"
 xmlns:xlink="http://www.w3.org/1999/xlink">
 <defs>
  <style type="text/css">
   <![CDATA[
    .fil2 {fill:#4D475C}
    .fil0 {fill:#FF9E45}
    .fil1 {fill:white}
   ]]>
  </style>
 </defs>
 <g id="Layer_x0020_1">
  <metadata id="CorelCorpID_0Corel-Layer"/>
  <path class="fil0" d="M50 24.09c0,8.24 -9.6,19.84 -16.9,27.46 -4.4,4.6 -11.8,4.6 -16.2,0 -7.3,-7.62 -16.9,-19.22 -16.9,-27.46 0,-13.31 11.19,-24.09 25,-24.09 13.81,0 25,10.78 25,24.09z"/>
  <ellipse class="fil1" cx="25" cy="23.77" rx="16.67" ry="15.85"/>
  <path class="fil2" d="M15.62 27.36l0 -8.2c0,-0.19 0.19,-0.34 0.41,-0.34l1.36 0c0.22,0 0.41,0.15 0.41,0.34l0 8.2c0,0.19 -0.19,0.35 -0.41,0.35l-1.36 0c-0.22,0 -0.41,-0.16 -0.41,-0.35zm11.24 0l0 -4.06c0,-0.11 -0.16,-0.14 -0.22,-0.05l-2.15 3.4c-0.04,0.07 -0.13,0.11 -0.21,0.11l-0.46 0c-0.08,0 -0.17,-0.04 -0.21,-0.11l-2.17 -3.4c-0.06,-0.09 -0.22,-0.06 -0.22,0.05l0 4.08c0,0.19 -0.18,0.35 -0.4,0.35l-1.32 0c-0.22,0 -0.41,-0.16 -0.41,-0.35l0.02 -8.2c0,-0.19 0.19,-0.35 0.41,-0.35l1.48 0c0.16,0 0.3,0.07 0.36,0.19l2.68 4.4c0.04,0.07 0.16,0.07 0.22,0l2.52 -4.4c0.06,-0.12 0.2,-0.19 0.36,-0.19l1.46 0c0.23,0 0.41,0.16 0.41,0.35l0 8.2c0,0.19 -0.18,0.35 -0.41,0.35l-1.31 0c-0.25,-0.02 -0.43,-0.18 -0.43,-0.37zm8.56 -0.95l0 0.95c0,0.19 -0.19,0.35 -0.43,0.35l-4.3 0c-0.22,0 -0.42,-0.16 -0.42,-0.35l0 -8.2c0,-0.19 0.18,-0.34 0.42,-0.34l1.34 0c0.22,0 0.43,0.15 0.43,0.34l0 6.73c0,0.08 0.08,0.15 0.18,0.15l2.35 0c0.24,0.02 0.43,0.18 0.43,0.37z"/>
 </g>
</svg>
