<svg width="82" height="82" viewBox="0 0 82 82" fill="none" xmlns="http://www.w3.org/2000/svg">
    <circle cx="41" cy="41" r="40" fill="white" stroke="#323C47" stroke-width="2"/>
    <path d="M26.8019 43.9153C26.6095 43.9153 26.417 43.7708 26.417 43.5301C26.417 43.5301 26.417 43.5301 26.417 43.4819V23.8852C26.417 23.6445 26.5614 23.5 26.8019 23.5H39.5535C39.7941 23.5 39.9385 23.6445 39.9385 23.8852V27.4964C39.9385 27.7371 39.7941 27.8816 39.5535 27.8816H31.1327V31.3002H36.4739C36.7145 31.3002 36.8589 31.4446 36.8589 31.6854V35.2966C36.8589 35.5373 36.7145 35.6818 36.4739 35.6818H31.1327V39.4374H39.8904C40.131 39.4374 40.2753 39.5818 40.2753 39.8226V43.4338C40.2753 43.6745 40.131 43.819 39.8904 43.819" fill="#323C47"/>
    <path d="M48.3416 28.0277L47.3311 29.0388V31.3981H56.4256C56.6662 31.3981 56.8106 31.5426 56.8106 31.7833V39.4872C56.8106 40.065 56.7144 40.2576 56.4256 40.6428L53.6347 43.4354C53.4904 43.628 53.2498 43.9169 52.6723 43.9169H42.6154C42.4229 43.9169 42.2305 43.7725 42.2305 43.5317C42.2305 43.5317 42.2305 43.5317 42.2305 43.4836V39.8724C42.2305 39.6316 42.3748 39.4872 42.6154 39.4872H51.0363L52.0468 38.4761V35.7797H42.9523C42.7598 35.7797 42.5673 35.6353 42.5673 35.3945C42.5673 35.3945 42.5673 35.3945 42.5673 35.3464V27.9314C42.5673 27.498 42.7117 27.1129 43.0004 26.7758L45.7432 24.0313C45.8875 23.8387 46.1281 23.5498 46.7056 23.5498H56.0888C56.3294 23.5498 56.4738 23.6942 56.4738 23.935V27.5462C56.4738 27.7869 56.3294 27.9314 56.0888 27.9314H48.3897L48.3416 28.0277Z" fill="#323C47"/>
    <path d="M63.5508 54.7331C63.9211 54.7331 64.3327 54.3625 64.3327 53.9508V53.5802V51.3977V47.0329C64.3327 46.6623 63.9623 46.2505 63.5508 46.2505H60.9993C60.629 46.2505 60.2175 46.6211 60.2175 47.0329V50.6153H21.7812V47.0329C21.7812 46.6623 21.4109 46.2505 20.9993 46.2505H18.4479C18.0775 46.2505 17.666 46.6211 17.666 47.0329V51.3977V53.5802V53.9508C17.666 54.3214 18.0364 54.7331 18.4479 54.7331H63.5508Z" fill="#F8C71A"/>
</svg>
