<svg width="96" height="96" viewBox="0 0 96 96" fill="none" xmlns="http://www.w3.org/2000/svg">
    <path fill-rule="evenodd" clip-rule="evenodd" d="M48 0C21.4925 0 0 21.4886 0 48C0 74.5114 21.4925 96 48 96C74.5114 96 96 74.5114 96 48C96 21.4886 74.5114 0 48 0ZM48 4.00004C72.2612 4.00004 92 23.7388 92 48C92 72.2613 72.2612 92 48 92C23.7388 92 4 72.2613 4 48C4 23.7388 23.7388 4.00004 48 4.00004Z" fill="#B8C0D4"/>
    <path fill-rule="evenodd" clip-rule="evenodd" d="M74.6602 83.0862C74.6141 82.7406 74.5104 82.4334 74.2685 82.2337C70.7472 79.3191 63.8084 80.7207 61.2356 78.4436C57.6106 75.2257 58.6935 66.1556 58.6935 66.1556C58.6935 66.1556 61.1127 64.2087 61.3085 62.0737C61.466 60.3841 62.2992 54.8737 62.2992 54.8737C62.2992 54.8737 63.674 53.8868 64.4304 52.9537C65.4288 51.7249 64.9104 49.5937 65.1485 48.3956C65.3904 47.1937 67.7904 44.7937 66.8304 42.8737C65.8704 40.9537 64.9412 41.1956 64.9412 41.1956C64.9412 41.1956 66.9917 33.266 66.1085 27.7556C65.7207 25.3364 63.8314 21.0049 60.5597 18.6049C57.9562 16.6926 54.5885 15.1758 48.8285 15.1758H47.3002C41.5402 15.1758 38.1764 16.6926 35.569 18.6049C32.2973 21.0049 30.408 25.3364 30.0202 27.7556C29.137 33.266 31.1876 41.1956 31.1876 41.1956C31.1876 41.1956 30.2583 40.9537 29.2983 42.8737C28.3383 44.7937 30.7383 47.1937 30.9802 48.3956C31.2183 49.5937 30.6999 51.7249 31.6983 52.9537C32.4548 53.8868 33.8295 54.8737 33.8295 54.8737C33.8295 54.8737 34.6628 60.3841 34.8202 62.0737C35.016 64.2087 37.4352 66.1556 37.4352 66.1556C37.4352 66.1556 38.5181 75.2257 34.8932 78.4436C32.3242 80.7207 25.3815 79.3191 21.8602 82.2337C21.5991 82.4487 21.4493 82.779 21.3418 83.1591C28.753 88.7809 37.9536 92.1601 47.953 92.1601C57.9946 92.1601 67.2336 88.754 74.6602 83.0862Z" fill="#B8C0D4"/>
</svg>
