<?xml version="1.0" standalone="no"?>
<!DOCTYPE svg PUBLIC "-//W3C//DTD SVG 20010904//EN"
 "http://www.w3.org/TR/2001/REC-SVG-20010904/DTD/svg10.dtd">
<svg version="1.0" xmlns="http://www.w3.org/2000/svg"
 width="656.000000pt" height="656.000000pt" viewBox="0 0 656.000000 656.000000"
 preserveAspectRatio="xMidYMid meet">
<metadata>
Created by potrace 1.14, written by Peter Selinger 2001-2017
</metadata>
<g transform="translate(0.000000,656.000000) scale(0.100000,-0.100000)"
fill="#000000" stroke="none">
<path d="M2910 5464 c-588 -9 -1626 -55 -2124 -94 -98 -8 -129 -14 -181 -39
-115 -54 -199 -158 -225 -279 -9 -39 1 -343 44 -1399 31 -741 60 -1379 66
-1416 18 -121 96 -234 200 -291 27 -15 602 -212 1277 -438 1213 -406 1229
-412 1308 -411 79 0 101 7 1324 416 873 292 1258 426 1292 448 102 65 165 166
181 293 5 39 34 671 64 1405 59 1435 59 1393 9 1491 -53 103 -161 187 -271
209 -93 19 -1076 72 -1669 90 -367 12 -1024 19 -1295 15z m1380 -164 c691 -26
1511 -74 1573 -92 50 -15 125 -82 148 -133 14 -29 19 -64 19 -130 0 -49 -25
-677 -55 -1393 -52 -1228 -56 -1307 -76 -1350 -23 -54 -61 -97 -104 -120 -16
-8 -578 -199 -1248 -424 -938 -314 -1230 -408 -1267 -408 -68 0 -2486 807
-2544 849 -22 15 -53 52 -69 81 l-30 52 -59 1377 c-62 1457 -61 1426 -16 1499
26 42 89 89 137 102 91 24 1291 85 2066 104 231 6 1242 -3 1525 -14z"/>
<path d="M1666 4419 l-26 -20 0 -905 c0 -891 0 -904 20 -924 18 -18 33 -20
174 -20 137 0 156 2 177 19 l24 19 3 889 c2 621 -1 896 -9 914 -17 41 -48 49
-198 49 -125 0 -141 -2 -165 -21z"/>
<path d="M2284 4419 c-18 -20 -19 -52 -22 -919 -2 -896 -2 -897 19 -923 l20
-27 153 0 c143 0 154 1 172 21 18 20 19 47 24 478 4 372 7 456 18 456 8 0 104
-166 214 -370 110 -203 205 -373 211 -377 15 -10 109 -10 124 0 6 4 101 174
210 377 125 234 204 370 213 370 13 0 15 -58 17 -450 2 -316 6 -457 14 -472
18 -34 61 -43 196 -43 124 0 125 0 154 29 l29 30 -2 901 -3 902 -24 19 c-21
17 -40 19 -177 19 -145 0 -154 -1 -177 -22 -14 -13 -122 -225 -247 -483 -122
-253 -227 -465 -233 -472 -7 -7 -17 -9 -23 -5 -6 4 -120 218 -253 477 -133
258 -249 478 -258 487 -14 16 -37 18 -183 18 -157 0 -168 -1 -186 -21z"/>
<path d="M4306 4419 l-26 -20 0 -903 0 -903 23 -21 c23 -22 26 -22 436 -22
250 0 420 4 431 10 28 15 40 65 40 165 0 100 -12 150 -40 165 -11 6 -116 10
-244 10 -191 0 -227 2 -240 16 -14 14 -16 95 -16 749 l0 734 -26 20 c-24 19
-40 21 -169 21 -129 0 -145 -2 -169 -21z"/>
</g>
</svg>
